<?xml version="1.0" encoding="utf-8"?>
<!-- Generator: Adobe Illustrator 19.0.0, SVG Export Plug-In . SVG Version: 6.00 Build 0)  -->
<svg version="1.1" baseProfile="basic" id="Layer_1"
	 xmlns="http://www.w3.org/2000/svg" xmlns:xlink="http://www.w3.org/1999/xlink" x="0px" y="0px" viewBox="0 0 47.744 26.081"
	 xml:space="preserve">
<path fill="#FFFFFF" d="M30.649,13.956c-0.831,0.046-1.131,1.022-1.053,1.724c0.031,2.22-0.059,4.443,0.043,6.663
	c0.019,0.796,0.905,1.202,1.611,1.108c3.757-0.023,7.514,0.031,11.271-0.027c0.764,0.011,1.267-0.769,1.17-1.479
	c-0.027-2.403,0.113-4.818-0.078-7.213c-0.336-0.901-1.389-0.839-2.173-0.827C37.843,13.963,34.242,13.842,30.649,13.956
	 M5.283,13.936c-0.725-0.019-1.303,0.687-1.221,1.393c-0.019,2.317-0.05,4.642,0.016,6.96c-0.027,0.764,0.78,1.236,1.471,1.154
	l10.946,0.008c0.707,0.094,1.592-0.312,1.612-1.108c0.109-1.954-0.004-3.913,0.05-5.867c-0.054-0.714,0.153-1.545-0.351-2.142
	c-0.394-0.538-1.143-0.371-1.716-0.429C12.489,13.944,8.884,13.878,5.283,13.936z M0.095,11.338l0.135-0.001l-0.14-0.01L17.225,0
	l1.525,1.162L4.286,11.322c13.007-0.045,26.015-0.045,39.022-0.001L28.845,1.162L30.37,0l17.134,11.327l-0.131,0.01
	c0.092,0,0.185,0,0.278,0.001c0.171,3.683,0.05,7.373,0.066,11.06l-1.362,0.156c0.172,1.525-0.612,3.37-2.332,3.484
	c-4.245,0.089-8.497-0.008-12.746,0.043c-0.936-0.032-2.028,0.136-2.785-0.554c-1.795-1.619-1.76-4.323-3.215-6.16
	c-0.679-0.906-2.13-0.906-2.809,0c-1.451,1.837-1.42,4.537-3.21,6.156c-0.757,0.694-1.85,0.526-2.79,0.558
	c-4.244-0.051-8.497,0.046-12.741-0.043c-1.717-0.11-2.516-1.951-2.325-3.476l-1.374-0.164C0.04,18.711-0.077,15.021,0.095,11.338z"
	/>
</svg>
