<?xml version="1.0" encoding="utf-8"?>
<!-- Generator: Adobe Illustrator 19.0.0, SVG Export Plug-In . SVG Version: 6.00 Build 0)  -->
<svg version="1.1" baseProfile="basic" id="Layer_1"
	 xmlns="http://www.w3.org/2000/svg" xmlns:xlink="http://www.w3.org/1999/xlink" x="0px" y="0px" viewBox="0 0 18.501 13.081"
	 xml:space="preserve">
<path id="XMLID_1_" fill="#FFFFFF" d="M12.908,2.002c-0.78,0.345-1.42,0.961-1.868,1.68c-0.685,1.098-0.932,2.45-0.726,3.724
	c0.177,1.16,0.73,2.281,1.623,3.056c0.625,0.543,1.429,0.897,2.263,0.913c0.738,0.002,1.477-0.001,2.215,0.001
	c-0.002-3.223,0-6.445-0.001-9.668C15.692,1.71,14.97,1.707,14.248,1.71C13.787,1.708,13.329,1.818,12.908,2.002 M2.196,1.711
	c0,3.221,0.001,6.442-0.001,9.663c0.703,0.003,1.405,0,2.107,0.002c0.461,0.004,0.921-0.097,1.345-0.277
	c0.841-0.361,1.526-1.032,1.979-1.82c0.69-1.188,0.888-2.639,0.591-3.976C7.974,4.24,7.41,3.233,6.557,2.541
	C5.929,2.02,5.122,1.7,4.302,1.709C3.6,1.709,2.898,1.707,2.196,1.711z M0,0h18.501v13.081C12.334,13.08,6.167,13.082,0,13.08V0z"/>
</svg>
