<?xml version="1.0" encoding="utf-8"?>
<!-- Generator: Adobe Illustrator 19.0.0, SVG Export Plug-In . SVG Version: 6.00 Build 0)  -->
<svg version="1.1" baseProfile="basic" id="Layer_1"
	 xmlns="http://www.w3.org/2000/svg" xmlns:xlink="http://www.w3.org/1999/xlink" x="0px" y="0px" viewBox="0 0 27.637 13.454"
	 xml:space="preserve">
<path fill="#FFFFFF" d="M20.197,0h0.016c2.142,3.885,4.291,7.766,6.434,11.649c0.328,0.603,0.672,1.197,0.99,1.805h-2.97
	c-1.503-2.687-2.968-5.397-4.466-8.087c-1.024,1.863-2.055,3.723-3.081,5.586c0.971-0.001,1.943,0.003,2.915-0.004
	c0.112-0.005,0.247,0.01,0.299,0.127c0.412,0.724,0.816,1.453,1.229,2.176c0.024,0.065,0.098,0.129,0.07,0.202h-8.854
	c0.475-0.928,0.995-1.834,1.493-2.751c1.903-3.449,3.806-6.899,5.732-10.336C20.065,0.243,20.174,0.141,20.197,0"/>
<path fill="#FFFFFF" d="M0,0.64c0.954,0,1.909-0.001,2.863,0C2.856,4.031,2.842,7.422,2.835,10.814
	c2.928,0.001,5.855-0.011,8.783-0.003c-0.011,0.881,0.008,1.762-0.01,2.643H0V0.64"/>
</svg>
