<?xml version="1.0" encoding="utf-8"?>
<!-- Generator: Adobe Illustrator 19.0.0, SVG Export Plug-In . SVG Version: 6.00 Build 0)  -->
<svg version="1.1" baseProfile="basic" id="Layer_1"
	 xmlns="http://www.w3.org/2000/svg" xmlns:xlink="http://www.w3.org/1999/xlink" x="0px" y="0px" viewBox="0 0 13.716 12.563"
	 xml:space="preserve">
<path fill="#FFFFFF" d="M0.005,0c3.106,0.02,6.21,0.008,9.316,0.01c1.239,0.005,2.43,0.707,3.084,1.749
	c0.825,1.28,0.743,3.056-0.186,4.261c-0.515,0.692-1.289,1.156-2.115,1.376c1.22,1.71,2.415,3.44,3.612,5.167
	c-1.023-0.05-2.048-0.02-3.073-0.02c-1.185-1.684-2.339-3.389-3.546-5.059C5.623,7.503,4.148,7.492,2.675,7.49
	c0.006,1.684-0.001,3.369,0.005,5.055c-0.893-0.009-1.783-0.01-2.674,0C0,10.048,0.01,7.551,0,5.056
	c3.061,0.01,6.12,0.003,9.179,0.005c0.776,0.04,1.471-0.728,1.346-1.498C10.43,2.928,9.832,2.401,9.18,2.447
	C6.123,2.448,3.064,2.446,0.005,2.448C0.005,1.632,0.006,0.816,0.005,0"/>
</svg>
