<?xml version="1.0" encoding="utf-8"?>
<!-- Generator: Adobe Illustrator 19.0.0, SVG Export Plug-In . SVG Version: 6.00 Build 0)  -->
<svg version="1.1" baseProfile="basic" id="Layer_1"
	 xmlns="http://www.w3.org/2000/svg" xmlns:xlink="http://www.w3.org/1999/xlink" x="0px" y="0px" viewBox="0 0 23.7 10.5"
	 xml:space="preserve">
<path fill="#FFFFFF" d="M10.05,0L6.368,10.5H3.637L0,0h2.595l2.228,7.308c0.119,0.396,0.191,0.745,0.216,1.048h0.045
	C5.12,8.029,5.197,7.671,5.316,7.28L7.53,0H10.05"/>
<polyline fill="#FFFFFF" points="14.55,0 14.55,1.801 13.65,1.801 13.65,8.7 14.55,8.7 14.55,10.5 10.35,10.5 10.35,8.7 11.25,8.7 
	11.25,1.801 10.35,1.801 10.35,0 14.55,0 "/>
<path fill="#FFFFFF" d="M18.45,1.801v3.3h0.891c1.206,0,1.809-0.557,1.809-1.669c0-1.088-0.603-1.631-1.809-1.631H18.45 M18.45,6.9
	v3.6h-2.4V0h3.694C22.381,0,23.7,1.118,23.7,3.354c0,1.058-0.375,1.914-1.126,2.567C21.823,6.574,20.82,6.9,19.566,6.9H18.45z"/>
</svg>
